<svg xmlns="http://www.w3.org/2000/svg" viewBox="0 0 1600 1000" width="1600" height="1000" role="img" aria-label="Unit plan placeholder">
<title>Unit plan placeholder</title>
<defs>
<pattern id="hatchA" width="7" height="7" patternUnits="userSpaceOnUse" patternTransform="rotate(45)"><line x1="0" y1="0" x2="0" y2="7" stroke="#2F5B8A" stroke-width="1.1"/></pattern>
<pattern id="hatchG" width="6" height="6" patternUnits="userSpaceOnUse" patternTransform="rotate(45)"><line x1="0" y1="0" x2="0" y2="6" stroke="#5F6A76" stroke-width="0.8"/></pattern>
<pattern id="hatchX" width="8" height="8" patternUnits="userSpaceOnUse" patternTransform="rotate(45)"><line x1="0" y1="0" x2="0" y2="8" stroke="#5F6A76" stroke-width="0.6"/><line x1="0" y1="0" x2="8" y2="0" stroke="#5F6A76" stroke-width="0.6"/></pattern>
<pattern id="concrete" width="18" height="18" patternUnits="userSpaceOnUse"><circle cx="3" cy="4" r="0.9" fill="#5F6A76"/><circle cx="11" cy="9" r="0.7" fill="#5F6A76"/><circle cx="6" cy="14" r="0.8" fill="#5F6A76"/><path d="M13 2 l2.4 3.6 h-4.2z" fill="none" stroke="#5F6A76" stroke-width="0.6"/><path d="M1 9 l2 3 h-3.6z" fill="none" stroke="#5F6A76" stroke-width="0.6"/><circle cx="16" cy="15" r="0.6" fill="#5F6A76"/></pattern>
<pattern id="earth" width="14" height="14" patternUnits="userSpaceOnUse" patternTransform="rotate(45)"><line x1="0" y1="0" x2="0" y2="14" stroke="#5F6A76" stroke-width="0.7"/><line x1="4" y1="0" x2="4" y2="14" stroke="#5F6A76" stroke-width="0.7"/></pattern>
<pattern id="brick" width="24" height="8" patternUnits="userSpaceOnUse"><path d="M0 0 H24 M0 4 H24 M6 0 V4 M18 4 V8" stroke="#B7BCC2" stroke-width="0.7" fill="none"/></pattern>
<pattern id="siding" width="10" height="7" patternUnits="userSpaceOnUse"><line x1="0" y1="6.5" x2="10" y2="6.5" stroke="#B7BCC2" stroke-width="0.8"/></pattern>
<pattern id="sidingA" width="10" height="7" patternUnits="userSpaceOnUse"><line x1="0" y1="6.5" x2="10" y2="6.5" stroke="#2F5B8A" stroke-width="0.7" opacity="0.7"/></pattern>
<pattern id="clg" width="24" height="24" patternUnits="userSpaceOnUse"><path d="M24 0 V24 M0 24 H24" stroke="#B7BCC2" stroke-width="0.6" fill="none"/></pattern>
</defs>
<rect width="1600" height="1000" fill="#F3F1EB"/>
<line x1="40" y1="40" x2="40" y2="960" stroke="#DEDBD2" stroke-width="0.5"/>
<line x1="80" y1="40" x2="80" y2="960" stroke="#DEDBD2" stroke-width="0.5"/>
<line x1="120" y1="40" x2="120" y2="960" stroke="#DEDBD2" stroke-width="0.5"/>
<line x1="160" y1="40" x2="160" y2="960" stroke="#DEDBD2" stroke-width="0.5"/>
<line x1="200" y1="40" x2="200" y2="960" stroke="#DEDBD2" stroke-width="0.5"/>
<line x1="240" y1="40" x2="240" y2="960" stroke="#DEDBD2" stroke-width="0.5"/>
<line x1="280" y1="40" x2="280" y2="960" stroke="#DEDBD2" stroke-width="0.5"/>
<line x1="320" y1="40" x2="320" y2="960" stroke="#DEDBD2" stroke-width="0.5"/>
<line x1="360" y1="40" x2="360" y2="960" stroke="#DEDBD2" stroke-width="0.5"/>
<line x1="400" y1="40" x2="400" y2="960" stroke="#DEDBD2" stroke-width="0.5"/>
<line x1="440" y1="40" x2="440" y2="960" stroke="#DEDBD2" stroke-width="0.5"/>
<line x1="480" y1="40" x2="480" y2="960" stroke="#DEDBD2" stroke-width="0.5"/>
<line x1="520" y1="40" x2="520" y2="960" stroke="#DEDBD2" stroke-width="0.5"/>
<line x1="560" y1="40" x2="560" y2="960" stroke="#DEDBD2" stroke-width="0.5"/>
<line x1="600" y1="40" x2="600" y2="960" stroke="#DEDBD2" stroke-width="0.5"/>
<line x1="640" y1="40" x2="640" y2="960" stroke="#DEDBD2" stroke-width="0.5"/>
<line x1="680" y1="40" x2="680" y2="960" stroke="#DEDBD2" stroke-width="0.5"/>
<line x1="720" y1="40" x2="720" y2="960" stroke="#DEDBD2" stroke-width="0.5"/>
<line x1="760" y1="40" x2="760" y2="960" stroke="#DEDBD2" stroke-width="0.5"/>
<line x1="800" y1="40" x2="800" y2="960" stroke="#DEDBD2" stroke-width="0.5"/>
<line x1="840" y1="40" x2="840" y2="960" stroke="#DEDBD2" stroke-width="0.5"/>
<line x1="880" y1="40" x2="880" y2="960" stroke="#DEDBD2" stroke-width="0.5"/>
<line x1="920" y1="40" x2="920" y2="960" stroke="#DEDBD2" stroke-width="0.5"/>
<line x1="960" y1="40" x2="960" y2="960" stroke="#DEDBD2" stroke-width="0.5"/>
<line x1="1000" y1="40" x2="1000" y2="960" stroke="#DEDBD2" stroke-width="0.5"/>
<line x1="1040" y1="40" x2="1040" y2="960" stroke="#DEDBD2" stroke-width="0.5"/>
<line x1="1080" y1="40" x2="1080" y2="960" stroke="#DEDBD2" stroke-width="0.5"/>
<line x1="1120" y1="40" x2="1120" y2="960" stroke="#DEDBD2" stroke-width="0.5"/>
<line x1="1160" y1="40" x2="1160" y2="960" stroke="#DEDBD2" stroke-width="0.5"/>
<line x1="1200" y1="40" x2="1200" y2="960" stroke="#DEDBD2" stroke-width="0.5"/>
<line x1="1240" y1="40" x2="1240" y2="960" stroke="#DEDBD2" stroke-width="0.5"/>
<line x1="1280" y1="40" x2="1280" y2="960" stroke="#DEDBD2" stroke-width="0.5"/>
<line x1="1320" y1="40" x2="1320" y2="960" stroke="#DEDBD2" stroke-width="0.5"/>
<line x1="1360" y1="40" x2="1360" y2="960" stroke="#DEDBD2" stroke-width="0.5"/>
<line x1="40" y1="40" x2="1384" y2="40" stroke="#DEDBD2" stroke-width="0.5"/>
<line x1="40" y1="80" x2="1384" y2="80" stroke="#DEDBD2" stroke-width="0.5"/>
<line x1="40" y1="120" x2="1384" y2="120" stroke="#DEDBD2" stroke-width="0.5"/>
<line x1="40" y1="160" x2="1384" y2="160" stroke="#DEDBD2" stroke-width="0.5"/>
<line x1="40" y1="200" x2="1384" y2="200" stroke="#DEDBD2" stroke-width="0.5"/>
<line x1="40" y1="240" x2="1384" y2="240" stroke="#DEDBD2" stroke-width="0.5"/>
<line x1="40" y1="280" x2="1384" y2="280" stroke="#DEDBD2" stroke-width="0.5"/>
<line x1="40" y1="320" x2="1384" y2="320" stroke="#DEDBD2" stroke-width="0.5"/>
<line x1="40" y1="360" x2="1384" y2="360" stroke="#DEDBD2" stroke-width="0.5"/>
<line x1="40" y1="400" x2="1384" y2="400" stroke="#DEDBD2" stroke-width="0.5"/>
<line x1="40" y1="440" x2="1384" y2="440" stroke="#DEDBD2" stroke-width="0.5"/>
<line x1="40" y1="480" x2="1384" y2="480" stroke="#DEDBD2" stroke-width="0.5"/>
<line x1="40" y1="520" x2="1384" y2="520" stroke="#DEDBD2" stroke-width="0.5"/>
<line x1="40" y1="560" x2="1384" y2="560" stroke="#DEDBD2" stroke-width="0.5"/>
<line x1="40" y1="600" x2="1384" y2="600" stroke="#DEDBD2" stroke-width="0.5"/>
<line x1="40" y1="640" x2="1384" y2="640" stroke="#DEDBD2" stroke-width="0.5"/>
<line x1="40" y1="680" x2="1384" y2="680" stroke="#DEDBD2" stroke-width="0.5"/>
<line x1="40" y1="720" x2="1384" y2="720" stroke="#DEDBD2" stroke-width="0.5"/>
<line x1="40" y1="760" x2="1384" y2="760" stroke="#DEDBD2" stroke-width="0.5"/>
<line x1="40" y1="800" x2="1384" y2="800" stroke="#DEDBD2" stroke-width="0.5"/>
<line x1="40" y1="840" x2="1384" y2="840" stroke="#DEDBD2" stroke-width="0.5"/>
<line x1="40" y1="880" x2="1384" y2="880" stroke="#DEDBD2" stroke-width="0.5"/>
<line x1="40" y1="920" x2="1384" y2="920" stroke="#DEDBD2" stroke-width="0.5"/>
<rect x="24" y="24" width="1552" height="952" fill="none" stroke="#1E2833" stroke-width="1.4"/>
<rect x="32" y="32" width="1536" height="936" fill="none" stroke="#1E2833" stroke-width="0.6" opacity="0.6"/>
<line x1="224" y1="24" x2="224" y2="32" stroke="#1E2833" stroke-width="0.6"/>
<line x1="224" y1="968" x2="224" y2="976" stroke="#1E2833" stroke-width="0.6"/>
<line x1="416" y1="24" x2="416" y2="32" stroke="#1E2833" stroke-width="0.6"/>
<line x1="416" y1="968" x2="416" y2="976" stroke="#1E2833" stroke-width="0.6"/>
<line x1="608" y1="24" x2="608" y2="32" stroke="#1E2833" stroke-width="0.6"/>
<line x1="608" y1="968" x2="608" y2="976" stroke="#1E2833" stroke-width="0.6"/>
<line x1="800" y1="24" x2="800" y2="32" stroke="#1E2833" stroke-width="0.6"/>
<line x1="800" y1="968" x2="800" y2="976" stroke="#1E2833" stroke-width="0.6"/>
<line x1="992" y1="24" x2="992" y2="32" stroke="#1E2833" stroke-width="0.6"/>
<line x1="992" y1="968" x2="992" y2="976" stroke="#1E2833" stroke-width="0.6"/>
<line x1="1184" y1="24" x2="1184" y2="32" stroke="#1E2833" stroke-width="0.6"/>
<line x1="1184" y1="968" x2="1184" y2="976" stroke="#1E2833" stroke-width="0.6"/>
<line x1="1376" y1="24" x2="1376" y2="32" stroke="#1E2833" stroke-width="0.6"/>
<line x1="1376" y1="968" x2="1376" y2="976" stroke="#1E2833" stroke-width="0.6"/>
<line x1="24" y1="219.2" x2="32" y2="219.2" stroke="#1E2833" stroke-width="0.6"/>
<line x1="1568" y1="219.2" x2="1576" y2="219.2" stroke="#1E2833" stroke-width="0.6"/>
<line x1="24" y1="406.4" x2="32" y2="406.4" stroke="#1E2833" stroke-width="0.6"/>
<line x1="1568" y1="406.4" x2="1576" y2="406.4" stroke="#1E2833" stroke-width="0.6"/>
<line x1="24" y1="593.6" x2="32" y2="593.6" stroke="#1E2833" stroke-width="0.6"/>
<line x1="1568" y1="593.6" x2="1576" y2="593.6" stroke="#1E2833" stroke-width="0.6"/>
<line x1="24" y1="780.8" x2="32" y2="780.8" stroke="#1E2833" stroke-width="0.6"/>
<line x1="1568" y1="780.8" x2="1576" y2="780.8" stroke="#1E2833" stroke-width="0.6"/>
<rect x="1372" y="32" width="196" height="936" fill="#F3F1EB" stroke="#1E2833" stroke-width="1"/>
<rect x="1386" y="50" width="18" height="18" fill="none" stroke="#1E2833" stroke-width="1.4"/>
<line x1="1386" y1="68" x2="1404" y2="50" stroke="#1E2833" stroke-width="1.4"/>
<text x="1386" y="90" font-family="'IBM Plex Mono','SFMono-Regular',Menlo,Consolas,'Liberation Mono',monospace" font-size="12" font-weight="600" letter-spacing="1" fill="#2B3540" text-anchor="start">[COMPANY NAME]</text>
<text x="1386" y="108" font-family="'IBM Plex Mono','SFMono-Regular',Menlo,Consolas,'Liberation Mono',monospace" font-size="8.5" font-weight="400" letter-spacing="1" fill="#5F6A76" text-anchor="start">DESIGN DOCUMENTATION</text>
<line x1="1372" y1="128" x2="1568" y2="128" stroke="#1E2833" stroke-width="0.7"/>
<text x="1386" y="152" font-family="'IBM Plex Mono','SFMono-Regular',Menlo,Consolas,'Liberation Mono',monospace" font-size="8.5" font-weight="400" letter-spacing="1.4" fill="#5F6A76" text-anchor="start">PROJECT</text>
<text x="1386" y="174" font-family="'IBM Plex Mono','SFMono-Regular',Menlo,Consolas,'Liberation Mono',monospace" font-size="11.5" font-weight="500" letter-spacing="0.6" fill="#2B3540" text-anchor="start">MULTIFAMILY UNIT</text>
<text x="1386" y="191" font-family="'IBM Plex Mono','SFMono-Regular',Menlo,Consolas,'Liberation Mono',monospace" font-size="11.5" font-weight="500" letter-spacing="0.6" fill="#2B3540" text-anchor="start">RENOVATIONS</text>
<text x="1386" y="278" font-family="'IBM Plex Mono','SFMono-Regular',Menlo,Consolas,'Liberation Mono',monospace" font-size="9" font-weight="400" letter-spacing="0.6" fill="#5F6A76" text-anchor="start">[PROJECT ADDRESS]</text>
<line x1="1372" y1="298" x2="1568" y2="298" stroke="#1E2833" stroke-width="0.7"/>
<text x="1386" y="322" font-family="'IBM Plex Mono','SFMono-Regular',Menlo,Consolas,'Liberation Mono',monospace" font-size="8.5" font-weight="400" letter-spacing="1.4" fill="#5F6A76" text-anchor="start">STATUS</text>
<text x="1386" y="344" font-family="'IBM Plex Mono','SFMono-Regular',Menlo,Consolas,'Liberation Mono',monospace" font-size="10.5" font-weight="600" letter-spacing="0.8" fill="#2F5B8A" text-anchor="start">PLACEHOLDER IMAGE</text>
<text x="1386" y="362" font-family="'IBM Plex Mono','SFMono-Regular',Menlo,Consolas,'Liberation Mono',monospace" font-size="9.5" font-weight="400" letter-spacing="0.8" fill="#2B3540" text-anchor="start">ILLUSTRATIVE ONLY</text>
<text x="1386" y="378" font-family="'IBM Plex Mono','SFMono-Regular',Menlo,Consolas,'Liberation Mono',monospace" font-size="9.5" font-weight="400" letter-spacing="0.8" fill="#2B3540" text-anchor="start">NOT A COMPLETED</text>
<text x="1386" y="394" font-family="'IBM Plex Mono','SFMono-Regular',Menlo,Consolas,'Liberation Mono',monospace" font-size="9.5" font-weight="400" letter-spacing="0.8" fill="#2B3540" text-anchor="start">CLIENT PROJECT</text>
<line x1="1372" y1="418" x2="1568" y2="418" stroke="#1E2833" stroke-width="0.7"/>
<text x="1386" y="442" font-family="'IBM Plex Mono','SFMono-Regular',Menlo,Consolas,'Liberation Mono',monospace" font-size="8.5" font-weight="400" letter-spacing="1.4" fill="#5F6A76" text-anchor="start">DATE</text>
<text x="1386" y="460" font-family="'IBM Plex Mono','SFMono-Regular',Menlo,Consolas,'Liberation Mono',monospace" font-size="10" font-weight="400" letter-spacing="0.6" fill="#2B3540" text-anchor="start">[DATE]</text>
<text x="1386" y="484" font-family="'IBM Plex Mono','SFMono-Regular',Menlo,Consolas,'Liberation Mono',monospace" font-size="8.5" font-weight="400" letter-spacing="1.4" fill="#5F6A76" text-anchor="start">SCALE</text>
<text x="1386" y="502" font-family="'IBM Plex Mono','SFMono-Regular',Menlo,Consolas,'Liberation Mono',monospace" font-size="10" font-weight="400" letter-spacing="0.6" fill="#2B3540" text-anchor="start">3/8&quot; = 1'-0&quot;</text>
<line x1="1372" y1="514" x2="1568" y2="514" stroke="#1E2833" stroke-width="0.7"/>
<text x="1386" y="538" font-family="'IBM Plex Mono','SFMono-Regular',Menlo,Consolas,'Liberation Mono',monospace" font-size="8.5" font-weight="400" letter-spacing="1.4" fill="#5F6A76" text-anchor="start">SHEET TITLE</text>
<text x="1386" y="560" font-family="'IBM Plex Mono','SFMono-Regular',Menlo,Consolas,'Liberation Mono',monospace" font-size="11" font-weight="500" letter-spacing="0.6" fill="#2B3540" text-anchor="start">UNIT PLAN</text>
<line x1="1372" y1="634" x2="1568" y2="634" stroke="#1E2833" stroke-width="0.7"/>
<text x="1386" y="658" font-family="'IBM Plex Mono','SFMono-Regular',Menlo,Consolas,'Liberation Mono',monospace" font-size="8.5" font-weight="400" letter-spacing="1.4" fill="#5F6A76" text-anchor="start">REVISIONS</text>
<line x1="1386" y1="680" x2="1554" y2="680" stroke="#1E2833" stroke-width="0.4" opacity="0.7"/>
<line x1="1386" y1="700" x2="1554" y2="700" stroke="#1E2833" stroke-width="0.4" opacity="0.7"/>
<line x1="1386" y1="720" x2="1554" y2="720" stroke="#1E2833" stroke-width="0.4" opacity="0.7"/>
<line x1="1372" y1="858" x2="1568" y2="858" stroke="#1E2833" stroke-width="1"/>
<text x="1386" y="884" font-family="'IBM Plex Mono','SFMono-Regular',Menlo,Consolas,'Liberation Mono',monospace" font-size="8.5" font-weight="400" letter-spacing="1.4" fill="#5F6A76" text-anchor="start">SHEET</text>
<text x="1386" y="938" font-family="'IBM Plex Mono','SFMono-Regular',Menlo,Consolas,'Liberation Mono',monospace" font-size="44" font-weight="600" letter-spacing="0" fill="#2B3540" text-anchor="start">A-103</text>
<rect x="353.3" y="163.3" width="481.5" height="13.5" fill="#28313B" stroke="none"/>
<rect x="353.3" y="847.3" width="481.5" height="13.5" fill="#28313B" stroke="none"/>
<rect x="353.3" y="163.3" width="13.5" height="697.5" fill="#28313B" stroke="none"/>
<rect x="821.3" y="163.3" width="13.5" height="697.5" fill="#28313B" stroke="none"/>
<rect x="360" y="742.2" width="468" height="7.6" fill="#28313B" stroke="none"/>
<rect x="608.2" y="170" width="7.6" height="252" fill="url(#hatchA)" stroke="#2F5B8A" stroke-width="1"/>
<rect x="612" y="418.2" width="216" height="7.6" fill="url(#hatchA)" stroke="#2F5B8A" stroke-width="1"/>
<rect x="698.2" y="422" width="7.6" height="144" fill="url(#hatchA)" stroke="#2F5B8A" stroke-width="1"/>
<rect x="702" y="562.2" width="126" height="7.6" fill="url(#hatchA)" stroke="#2F5B8A" stroke-width="1"/>
<rect x="630" y="417.1" width="54" height="9.7" fill="#F3F1EB" stroke="none"/>
<line x1="630" y1="422" x2="630" y2="476" stroke="#1E2833" stroke-width="1.4"/>
<path d="M630 476 A54 54 0 0 0 684 422" fill="none" stroke="#1E2833" stroke-width="0.6"/>
<rect x="697.1" y="494" width="9.7" height="46.8" fill="#F3F1EB" stroke="none"/>
<line x1="702" y1="494" x2="655.2" y2="494" stroke="#1E2833" stroke-width="1.4"/>
<path d="M655.2 494 A46.800000000000004 46.800000000000004 0 0 0 702 540.8" fill="none" stroke="#1E2833" stroke-width="0.6"/>
<rect x="414" y="741.1" width="57.6" height="9.7" fill="#F3F1EB" stroke="none"/>
<line x1="414" y1="746" x2="414" y2="688.4" stroke="#1E2833" stroke-width="1.4"/>
<path d="M414 688.4 A57.6 57.6 0 0 1 471.6 746" fill="none" stroke="#1E2833" stroke-width="0.6"/>
<rect x="414" y="162.2" width="144" height="15.7" fill="#F3F1EB" stroke="none"/>
<line x1="414" y1="163.3" x2="558" y2="163.3" stroke="#1E2833" stroke-width="0.6"/>
<line x1="414" y1="170" x2="558" y2="170" stroke="#1E2833" stroke-width="1"/>
<line x1="414" y1="176.8" x2="558" y2="176.8" stroke="#1E2833" stroke-width="0.6"/>
<line x1="414" y1="163.3" x2="414" y2="176.8" stroke="#1E2833" stroke-width="0.6"/>
<line x1="558" y1="163.3" x2="558" y2="176.8" stroke="#1E2833" stroke-width="0.6"/>
<rect x="666" y="162.2" width="108" height="15.7" fill="#F3F1EB" stroke="none"/>
<line x1="666" y1="163.3" x2="774" y2="163.3" stroke="#1E2833" stroke-width="0.6"/>
<line x1="666" y1="170" x2="774" y2="170" stroke="#1E2833" stroke-width="1"/>
<line x1="666" y1="176.8" x2="774" y2="176.8" stroke="#1E2833" stroke-width="0.6"/>
<line x1="666" y1="163.3" x2="666" y2="176.8" stroke="#1E2833" stroke-width="0.6"/>
<line x1="774" y1="163.3" x2="774" y2="176.8" stroke="#1E2833" stroke-width="0.6"/>
<rect x="367.2" y="648.8" width="180" height="36" fill="none" stroke="#2F5B8A" stroke-width="0.8"/>
<rect x="367.2" y="494" width="36" height="154.8" fill="none" stroke="#2F5B8A" stroke-width="0.8"/>
<rect x="432" y="654.2" width="39.6" height="27" rx="3" fill="none" stroke="#1E2833" stroke-width="0.8"/>
<rect x="435.6" y="657.8" width="32.4" height="19.8" rx="3" fill="none" stroke="#1E2833" stroke-width="0.5"/>
<rect x="495" y="648.8" width="45" height="36" fill="none" stroke="#1E2833" stroke-width="0.8"/>
<circle cx="506.7" cy="658.7" r="5.9" fill="none" stroke="#1E2833" stroke-width="0.6"/>
<circle cx="528.3" cy="658.7" r="5.9" fill="none" stroke="#1E2833" stroke-width="0.6"/>
<circle cx="506.7" cy="674.9" r="5.9" fill="none" stroke="#1E2833" stroke-width="0.6"/>
<circle cx="528.3" cy="674.9" r="5.9" fill="none" stroke="#1E2833" stroke-width="0.6"/>
<rect x="730.8" y="573.2" width="90" height="46.8" fill="none" stroke="#1E2833" stroke-width="0.8"/>
<rect x="736.2" y="578.6" width="79.2" height="36" rx="10.799999999999999" fill="none" stroke="#1E2833" stroke-width="0.5"/>
<g transform="rotate(180 738 738.8000000000001)">
<rect x="721.8" y="738.8" width="32.4" height="12.6" fill="none" stroke="#1E2833" stroke-width="0.8"/>
<ellipse cx="738" cy="765.8000000000001" rx="11.700000000000001" ry="15.299999999999999" fill="none" stroke="#1E2833" stroke-width="0.8"/>
</g>
<ellipse cx="795.5999999999999" cy="728" rx="16.2" ry="10.799999999999999" fill="none" stroke="#1E2833" stroke-width="0.8"/>
<rect x="684" y="224" width="97.2" height="126" fill="none" stroke="#1E2833" stroke-width="0.7"/>
<rect x="689.4" y="229.4" width="40.5" height="25.2" rx="2" fill="none" stroke="#1E2833" stroke-width="0.5"/>
<rect x="735.3" y="229.4" width="40.5" height="25.2" rx="2" fill="none" stroke="#1E2833" stroke-width="0.5"/>
<line x1="684" y1="276.9" x2="781.2" y2="276.9" stroke="#1E2833" stroke-width="0.5"/>
<rect x="414" y="224" width="144" height="54" rx="3" fill="none" stroke="#1E2833" stroke-width="0.7"/>
<rect x="424.8" y="238.4" width="122.4" height="39.6" fill="none" stroke="#1E2833" stroke-width="0.5"/>
<text x="486" y="386" font-family="'IBM Plex Mono','SFMono-Regular',Menlo,Consolas,'Liberation Mono',monospace" font-size="12" font-weight="500" letter-spacing="1.4" fill="#2B3540" text-anchor="middle">LIVING</text>
<rect x="467" y="394" width="38" height="17" fill="#F3F1EB" stroke="#1E2833" stroke-width="0.8"/>
<text x="486" y="406.5" font-family="'IBM Plex Mono','SFMono-Regular',Menlo,Consolas,'Liberation Mono',monospace" font-size="10" font-weight="400" letter-spacing="0.4" fill="#2B3540" text-anchor="middle">101</text>
<text x="720" y="359" font-family="'IBM Plex Mono','SFMono-Regular',Menlo,Consolas,'Liberation Mono',monospace" font-size="12" font-weight="500" letter-spacing="1.4" fill="#2B3540" text-anchor="middle">BEDROOM</text>
<rect x="701" y="367" width="38" height="17" fill="#F3F1EB" stroke="#1E2833" stroke-width="0.8"/>
<text x="720" y="379.5" font-family="'IBM Plex Mono','SFMono-Regular',Menlo,Consolas,'Liberation Mono',monospace" font-size="10" font-weight="400" letter-spacing="0.4" fill="#2B3540" text-anchor="middle">102</text>
<text x="522" y="584" font-family="'IBM Plex Mono','SFMono-Regular',Menlo,Consolas,'Liberation Mono',monospace" font-size="12" font-weight="500" letter-spacing="1.4" fill="#2B3540" text-anchor="middle">KITCHEN</text>
<text x="765" y="659.6" font-family="'IBM Plex Mono','SFMono-Regular',Menlo,Consolas,'Liberation Mono',monospace" font-size="12" font-weight="500" letter-spacing="1.4" fill="#2B3540" text-anchor="middle">BATH</text>
<text x="594" y="810.8" font-family="'IBM Plex Mono','SFMono-Regular',Menlo,Consolas,'Liberation Mono',monospace" font-size="12" font-weight="500" letter-spacing="1.4" fill="#2B3540" text-anchor="middle">CORRIDOR</text>
<line x1="302.4" y1="164" x2="302.4" y2="428" stroke="#5F6A76" stroke-width="0.7"/>
<line x1="298.4" y1="174" x2="306.4" y2="166" stroke="#5F6A76" stroke-width="1.3"/>
<line x1="348.3" y1="170" x2="297.4" y2="170" stroke="#5F6A76" stroke-width="0.5"/>
<line x1="298.4" y1="426" x2="306.4" y2="418" stroke="#5F6A76" stroke-width="1.3"/>
<line x1="348.3" y1="422" x2="297.4" y2="422" stroke="#5F6A76" stroke-width="0.5"/>
<text x="297.4" y="296" font-family="'IBM Plex Mono','SFMono-Regular',Menlo,Consolas,'Liberation Mono',monospace" font-size="10" font-weight="400" letter-spacing="0.3" fill="#2B3540" text-anchor="middle" transform="rotate(-90 297.4 296)">14'-0&quot;</text>
<line x1="302.4" y1="416" x2="302.4" y2="752" stroke="#5F6A76" stroke-width="0.7"/>
<line x1="298.4" y1="426" x2="306.4" y2="418" stroke="#5F6A76" stroke-width="1.3"/>
<line x1="348.3" y1="422" x2="297.4" y2="422" stroke="#5F6A76" stroke-width="0.5"/>
<line x1="298.4" y1="750" x2="306.4" y2="742" stroke="#5F6A76" stroke-width="1.3"/>
<line x1="348.3" y1="746" x2="297.4" y2="746" stroke="#5F6A76" stroke-width="0.5"/>
<text x="297.4" y="584" font-family="'IBM Plex Mono','SFMono-Regular',Menlo,Consolas,'Liberation Mono',monospace" font-size="10" font-weight="400" letter-spacing="0.3" fill="#2B3540" text-anchor="middle" transform="rotate(-90 297.4 584)">18'-0&quot;</text>
<line x1="302.4" y1="740" x2="302.4" y2="860" stroke="#5F6A76" stroke-width="0.7"/>
<line x1="298.4" y1="750" x2="306.4" y2="742" stroke="#5F6A76" stroke-width="1.3"/>
<line x1="348.3" y1="746" x2="297.4" y2="746" stroke="#5F6A76" stroke-width="0.5"/>
<line x1="298.4" y1="858" x2="306.4" y2="850" stroke="#5F6A76" stroke-width="1.3"/>
<line x1="348.3" y1="854" x2="297.4" y2="854" stroke="#5F6A76" stroke-width="0.5"/>
<text x="297.4" y="800" font-family="'IBM Plex Mono','SFMono-Regular',Menlo,Consolas,'Liberation Mono',monospace" font-size="10" font-weight="400" letter-spacing="0.3" fill="#2B3540" text-anchor="middle" transform="rotate(-90 297.4 800)">6'-0&quot;</text>
<line x1="354" y1="62" x2="834" y2="62" stroke="#5F6A76" stroke-width="0.7"/>
<line x1="356" y1="66" x2="364" y2="58" stroke="#5F6A76" stroke-width="1.3"/>
<line x1="360" y1="165" x2="360" y2="57" stroke="#5F6A76" stroke-width="0.5"/>
<line x1="824" y1="66" x2="832" y2="58" stroke="#5F6A76" stroke-width="1.3"/>
<line x1="828" y1="165" x2="828" y2="57" stroke="#5F6A76" stroke-width="0.5"/>
<text x="594" y="57" font-family="'IBM Plex Mono','SFMono-Regular',Menlo,Consolas,'Liberation Mono',monospace" font-size="10.5" font-weight="400" letter-spacing="0.3" fill="#2B3540" text-anchor="middle">26'-0&quot;</text>
<line x1="252" y1="164" x2="252" y2="860" stroke="#5F6A76" stroke-width="0.7"/>
<line x1="248" y1="174" x2="256" y2="166" stroke="#5F6A76" stroke-width="1.3"/>
<line x1="355" y1="170" x2="247" y2="170" stroke="#5F6A76" stroke-width="0.5"/>
<line x1="248" y1="858" x2="256" y2="850" stroke="#5F6A76" stroke-width="1.3"/>
<line x1="355" y1="854" x2="247" y2="854" stroke="#5F6A76" stroke-width="0.5"/>
<text x="247" y="512" font-family="'IBM Plex Mono','SFMono-Regular',Menlo,Consolas,'Liberation Mono',monospace" font-size="10.5" font-weight="400" letter-spacing="0.3" fill="#2B3540" text-anchor="middle" transform="rotate(-90 247 512)">38'-0&quot;</text>
<path d="M457.8 615.5 L450 620 L442.2 615.5 L442.2 606.5 L450 602 L457.8 606.5 Z" fill="#F3F1EB" stroke="#2F5B8A" stroke-width="1.1"/>
<text x="450" y="614.5" font-family="'IBM Plex Mono','SFMono-Regular',Menlo,Consolas,'Liberation Mono',monospace" font-size="9.5" font-weight="600" letter-spacing="0" fill="#2F5B8A" text-anchor="middle">1</text>
<path d="M772.8 534.5 L765 539 L757.2 534.5 L757.2 525.5 L765 521 L772.8 525.5 Z" fill="#F3F1EB" stroke="#2F5B8A" stroke-width="1.1"/>
<text x="765" y="533.5" font-family="'IBM Plex Mono','SFMono-Regular',Menlo,Consolas,'Liberation Mono',monospace" font-size="9.5" font-weight="600" letter-spacing="0" fill="#2F5B8A" text-anchor="middle">2</text>
<path d="M619.8 282.5 L612 287 L604.2 282.5 L604.2 273.5 L612 269 L619.8 273.5 Z" fill="#F3F1EB" stroke="#2F5B8A" stroke-width="1.1"/>
<text x="612" y="281.5" font-family="'IBM Plex Mono','SFMono-Regular',Menlo,Consolas,'Liberation Mono',monospace" font-size="9.5" font-weight="600" letter-spacing="0" fill="#2F5B8A" text-anchor="middle">3</text>
<text x="960" y="200" font-family="'IBM Plex Mono','SFMono-Regular',Menlo,Consolas,'Liberation Mono',monospace" font-size="9.5" font-weight="600" letter-spacing="1.4" fill="#2B3540" text-anchor="start">LEGEND</text>
<rect x="960" y="212" width="34" height="8" fill="#28313B" stroke="none"/>
<text x="1006" y="220" font-family="'IBM Plex Mono','SFMono-Regular',Menlo,Consolas,'Liberation Mono',monospace" font-size="9.5" font-weight="400" letter-spacing="0.8" fill="#2B3540" text-anchor="start">EXISTING WALL</text>
<rect x="960" y="234" width="34" height="8" fill="url(#hatchA)" stroke="#2F5B8A" stroke-width="1"/>
<text x="1006" y="242" font-family="'IBM Plex Mono','SFMono-Regular',Menlo,Consolas,'Liberation Mono',monospace" font-size="9.5" font-weight="400" letter-spacing="0.8" fill="#2B3540" text-anchor="start">NEW WALL</text>
<text x="960" y="300" font-family="'IBM Plex Mono','SFMono-Regular',Menlo,Consolas,'Liberation Mono',monospace" font-size="9.5" font-weight="600" letter-spacing="1.4" fill="#2B3540" text-anchor="start">KEYNOTES</text>
<path d="M976.8 322.5 L969 327 L961.2 322.5 L961.2 313.5 L969 309 L976.8 313.5 Z" fill="#F3F1EB" stroke="#2F5B8A" stroke-width="1.1"/>
<text x="969" y="321.5" font-family="'IBM Plex Mono','SFMono-Regular',Menlo,Consolas,'Liberation Mono',monospace" font-size="9.5" font-weight="600" letter-spacing="0" fill="#2F5B8A" text-anchor="middle">1</text>
<text x="986" y="322" font-family="'IBM Plex Mono','SFMono-Regular',Menlo,Consolas,'Liberation Mono',monospace" font-size="9.5" font-weight="400" letter-spacing="0.6" fill="#2B3540" text-anchor="start">NEW CABINETS AND COUNTERS</text>
<path d="M976.8 344.5 L969 349 L961.2 344.5 L961.2 335.5 L969 331 L976.8 335.5 Z" fill="#F3F1EB" stroke="#2F5B8A" stroke-width="1.1"/>
<text x="969" y="343.5" font-family="'IBM Plex Mono','SFMono-Regular',Menlo,Consolas,'Liberation Mono',monospace" font-size="9.5" font-weight="600" letter-spacing="0" fill="#2F5B8A" text-anchor="middle">2</text>
<text x="986" y="344" font-family="'IBM Plex Mono','SFMono-Regular',Menlo,Consolas,'Liberation Mono',monospace" font-size="9.5" font-weight="400" letter-spacing="0.6" fill="#2B3540" text-anchor="start">NEW BATH FIXTURES</text>
<path d="M976.8 366.5 L969 371 L961.2 366.5 L961.2 357.5 L969 353 L976.8 357.5 Z" fill="#F3F1EB" stroke="#2F5B8A" stroke-width="1.1"/>
<text x="969" y="365.5" font-family="'IBM Plex Mono','SFMono-Regular',Menlo,Consolas,'Liberation Mono',monospace" font-size="9.5" font-weight="600" letter-spacing="0" fill="#2F5B8A" text-anchor="middle">3</text>
<text x="986" y="366" font-family="'IBM Plex Mono','SFMono-Regular',Menlo,Consolas,'Liberation Mono',monospace" font-size="9.5" font-weight="400" letter-spacing="0.6" fill="#2B3540" text-anchor="start">NEW PARTITION</text>
<circle cx="1010" cy="520" r="22" fill="none" stroke="#1E2833" stroke-width="1"/>
<path d="M1010 490 L1018 526 L1010 521 L1002 526 Z" fill="#1E2833" stroke="#1E2833" stroke-width="0.8"/>
<text x="1010" y="558" font-family="'IBM Plex Mono','SFMono-Regular',Menlo,Consolas,'Liberation Mono',monospace" font-size="11" font-weight="600" letter-spacing="0.6" fill="#2B3540" text-anchor="middle">N</text>
<circle cx="260" cy="890" r="20" fill="none" stroke="#1E2833" stroke-width="1.2"/>
<line x1="240" y1="890" x2="280" y2="890" stroke="#1E2833" stroke-width="0.8"/>
<text x="260" y="885" font-family="'IBM Plex Mono','SFMono-Regular',Menlo,Consolas,'Liberation Mono',monospace" font-size="12" font-weight="600" letter-spacing="0" fill="#2B3540" text-anchor="middle">1</text>
<text x="260" y="904" font-family="'IBM Plex Mono','SFMono-Regular',Menlo,Consolas,'Liberation Mono',monospace" font-size="8.5" font-weight="400" letter-spacing="0" fill="#2B3540" text-anchor="middle">A-103</text>
<line x1="280" y1="892" x2="700" y2="892" stroke="#1E2833" stroke-width="1.6"/>
<text x="292" y="882" font-family="'IBM Plex Mono','SFMono-Regular',Menlo,Consolas,'Liberation Mono',monospace" font-size="14" font-weight="600" letter-spacing="1.2" fill="#2B3540" text-anchor="start">UNIT PLAN: TYPE A</text>
<text x="292" y="910" font-family="'IBM Plex Mono','SFMono-Regular',Menlo,Consolas,'Liberation Mono',monospace" font-size="9.5" font-weight="400" letter-spacing="1" fill="#5F6A76" text-anchor="start">SCALE: 3/8&quot; = 1'-0&quot;</text>
</svg>
