<svg xmlns="http://www.w3.org/2000/svg" viewBox="0 0 1600 1000" width="1600" height="1000" role="img" aria-label="Mezzanine diagram placeholder">
<title>Mezzanine diagram placeholder</title>
<defs>
<pattern id="hatchA" width="7" height="7" patternUnits="userSpaceOnUse" patternTransform="rotate(45)"><line x1="0" y1="0" x2="0" y2="7" stroke="#8DB4DC" stroke-width="1.1"/></pattern>
<pattern id="hatchG" width="6" height="6" patternUnits="userSpaceOnUse" patternTransform="rotate(45)"><line x1="0" y1="0" x2="0" y2="6" stroke="#8397AD" stroke-width="0.8"/></pattern>
<pattern id="hatchX" width="8" height="8" patternUnits="userSpaceOnUse" patternTransform="rotate(45)"><line x1="0" y1="0" x2="0" y2="8" stroke="#8397AD" stroke-width="0.6"/><line x1="0" y1="0" x2="8" y2="0" stroke="#8397AD" stroke-width="0.6"/></pattern>
<pattern id="concrete" width="18" height="18" patternUnits="userSpaceOnUse"><circle cx="3" cy="4" r="0.9" fill="#8397AD"/><circle cx="11" cy="9" r="0.7" fill="#8397AD"/><circle cx="6" cy="14" r="0.8" fill="#8397AD"/><path d="M13 2 l2.4 3.6 h-4.2z" fill="none" stroke="#8397AD" stroke-width="0.6"/><path d="M1 9 l2 3 h-3.6z" fill="none" stroke="#8397AD" stroke-width="0.6"/><circle cx="16" cy="15" r="0.6" fill="#8397AD"/></pattern>
<pattern id="earth" width="14" height="14" patternUnits="userSpaceOnUse" patternTransform="rotate(45)"><line x1="0" y1="0" x2="0" y2="14" stroke="#8397AD" stroke-width="0.7"/><line x1="4" y1="0" x2="4" y2="14" stroke="#8397AD" stroke-width="0.7"/></pattern>
<pattern id="brick" width="24" height="8" patternUnits="userSpaceOnUse"><path d="M0 0 H24 M0 4 H24 M6 0 V4 M18 4 V8" stroke="#34465C" stroke-width="0.7" fill="none"/></pattern>
<pattern id="siding" width="10" height="7" patternUnits="userSpaceOnUse"><line x1="0" y1="6.5" x2="10" y2="6.5" stroke="#34465C" stroke-width="0.8"/></pattern>
<pattern id="sidingA" width="10" height="7" patternUnits="userSpaceOnUse"><line x1="0" y1="6.5" x2="10" y2="6.5" stroke="#8DB4DC" stroke-width="0.7" opacity="0.7"/></pattern>
<pattern id="clg" width="24" height="24" patternUnits="userSpaceOnUse"><path d="M24 0 V24 M0 24 H24" stroke="#34465C" stroke-width="0.6" fill="none"/></pattern>
</defs>
<rect width="1600" height="1000" fill="#0F1B2B"/>
<line x1="40" y1="40" x2="40" y2="960" stroke="#1A2A3E" stroke-width="0.5"/>
<line x1="80" y1="40" x2="80" y2="960" stroke="#1A2A3E" stroke-width="0.5"/>
<line x1="120" y1="40" x2="120" y2="960" stroke="#1A2A3E" stroke-width="0.5"/>
<line x1="160" y1="40" x2="160" y2="960" stroke="#1A2A3E" stroke-width="0.5"/>
<line x1="200" y1="40" x2="200" y2="960" stroke="#1A2A3E" stroke-width="0.5"/>
<line x1="240" y1="40" x2="240" y2="960" stroke="#1A2A3E" stroke-width="0.5"/>
<line x1="280" y1="40" x2="280" y2="960" stroke="#1A2A3E" stroke-width="0.5"/>
<line x1="320" y1="40" x2="320" y2="960" stroke="#1A2A3E" stroke-width="0.5"/>
<line x1="360" y1="40" x2="360" y2="960" stroke="#1A2A3E" stroke-width="0.5"/>
<line x1="400" y1="40" x2="400" y2="960" stroke="#1A2A3E" stroke-width="0.5"/>
<line x1="440" y1="40" x2="440" y2="960" stroke="#1A2A3E" stroke-width="0.5"/>
<line x1="480" y1="40" x2="480" y2="960" stroke="#1A2A3E" stroke-width="0.5"/>
<line x1="520" y1="40" x2="520" y2="960" stroke="#1A2A3E" stroke-width="0.5"/>
<line x1="560" y1="40" x2="560" y2="960" stroke="#1A2A3E" stroke-width="0.5"/>
<line x1="600" y1="40" x2="600" y2="960" stroke="#1A2A3E" stroke-width="0.5"/>
<line x1="640" y1="40" x2="640" y2="960" stroke="#1A2A3E" stroke-width="0.5"/>
<line x1="680" y1="40" x2="680" y2="960" stroke="#1A2A3E" stroke-width="0.5"/>
<line x1="720" y1="40" x2="720" y2="960" stroke="#1A2A3E" stroke-width="0.5"/>
<line x1="760" y1="40" x2="760" y2="960" stroke="#1A2A3E" stroke-width="0.5"/>
<line x1="800" y1="40" x2="800" y2="960" stroke="#1A2A3E" stroke-width="0.5"/>
<line x1="840" y1="40" x2="840" y2="960" stroke="#1A2A3E" stroke-width="0.5"/>
<line x1="880" y1="40" x2="880" y2="960" stroke="#1A2A3E" stroke-width="0.5"/>
<line x1="920" y1="40" x2="920" y2="960" stroke="#1A2A3E" stroke-width="0.5"/>
<line x1="960" y1="40" x2="960" y2="960" stroke="#1A2A3E" stroke-width="0.5"/>
<line x1="1000" y1="40" x2="1000" y2="960" stroke="#1A2A3E" stroke-width="0.5"/>
<line x1="1040" y1="40" x2="1040" y2="960" stroke="#1A2A3E" stroke-width="0.5"/>
<line x1="1080" y1="40" x2="1080" y2="960" stroke="#1A2A3E" stroke-width="0.5"/>
<line x1="1120" y1="40" x2="1120" y2="960" stroke="#1A2A3E" stroke-width="0.5"/>
<line x1="1160" y1="40" x2="1160" y2="960" stroke="#1A2A3E" stroke-width="0.5"/>
<line x1="1200" y1="40" x2="1200" y2="960" stroke="#1A2A3E" stroke-width="0.5"/>
<line x1="1240" y1="40" x2="1240" y2="960" stroke="#1A2A3E" stroke-width="0.5"/>
<line x1="1280" y1="40" x2="1280" y2="960" stroke="#1A2A3E" stroke-width="0.5"/>
<line x1="1320" y1="40" x2="1320" y2="960" stroke="#1A2A3E" stroke-width="0.5"/>
<line x1="1360" y1="40" x2="1360" y2="960" stroke="#1A2A3E" stroke-width="0.5"/>
<line x1="40" y1="40" x2="1384" y2="40" stroke="#1A2A3E" stroke-width="0.5"/>
<line x1="40" y1="80" x2="1384" y2="80" stroke="#1A2A3E" stroke-width="0.5"/>
<line x1="40" y1="120" x2="1384" y2="120" stroke="#1A2A3E" stroke-width="0.5"/>
<line x1="40" y1="160" x2="1384" y2="160" stroke="#1A2A3E" stroke-width="0.5"/>
<line x1="40" y1="200" x2="1384" y2="200" stroke="#1A2A3E" stroke-width="0.5"/>
<line x1="40" y1="240" x2="1384" y2="240" stroke="#1A2A3E" stroke-width="0.5"/>
<line x1="40" y1="280" x2="1384" y2="280" stroke="#1A2A3E" stroke-width="0.5"/>
<line x1="40" y1="320" x2="1384" y2="320" stroke="#1A2A3E" stroke-width="0.5"/>
<line x1="40" y1="360" x2="1384" y2="360" stroke="#1A2A3E" stroke-width="0.5"/>
<line x1="40" y1="400" x2="1384" y2="400" stroke="#1A2A3E" stroke-width="0.5"/>
<line x1="40" y1="440" x2="1384" y2="440" stroke="#1A2A3E" stroke-width="0.5"/>
<line x1="40" y1="480" x2="1384" y2="480" stroke="#1A2A3E" stroke-width="0.5"/>
<line x1="40" y1="520" x2="1384" y2="520" stroke="#1A2A3E" stroke-width="0.5"/>
<line x1="40" y1="560" x2="1384" y2="560" stroke="#1A2A3E" stroke-width="0.5"/>
<line x1="40" y1="600" x2="1384" y2="600" stroke="#1A2A3E" stroke-width="0.5"/>
<line x1="40" y1="640" x2="1384" y2="640" stroke="#1A2A3E" stroke-width="0.5"/>
<line x1="40" y1="680" x2="1384" y2="680" stroke="#1A2A3E" stroke-width="0.5"/>
<line x1="40" y1="720" x2="1384" y2="720" stroke="#1A2A3E" stroke-width="0.5"/>
<line x1="40" y1="760" x2="1384" y2="760" stroke="#1A2A3E" stroke-width="0.5"/>
<line x1="40" y1="800" x2="1384" y2="800" stroke="#1A2A3E" stroke-width="0.5"/>
<line x1="40" y1="840" x2="1384" y2="840" stroke="#1A2A3E" stroke-width="0.5"/>
<line x1="40" y1="880" x2="1384" y2="880" stroke="#1A2A3E" stroke-width="0.5"/>
<line x1="40" y1="920" x2="1384" y2="920" stroke="#1A2A3E" stroke-width="0.5"/>
<rect x="24" y="24" width="1552" height="952" fill="none" stroke="#C9D5E2" stroke-width="1.4"/>
<rect x="32" y="32" width="1536" height="936" fill="none" stroke="#C9D5E2" stroke-width="0.6" opacity="0.6"/>
<line x1="224" y1="24" x2="224" y2="32" stroke="#C9D5E2" stroke-width="0.6"/>
<line x1="224" y1="968" x2="224" y2="976" stroke="#C9D5E2" stroke-width="0.6"/>
<line x1="416" y1="24" x2="416" y2="32" stroke="#C9D5E2" stroke-width="0.6"/>
<line x1="416" y1="968" x2="416" y2="976" stroke="#C9D5E2" stroke-width="0.6"/>
<line x1="608" y1="24" x2="608" y2="32" stroke="#C9D5E2" stroke-width="0.6"/>
<line x1="608" y1="968" x2="608" y2="976" stroke="#C9D5E2" stroke-width="0.6"/>
<line x1="800" y1="24" x2="800" y2="32" stroke="#C9D5E2" stroke-width="0.6"/>
<line x1="800" y1="968" x2="800" y2="976" stroke="#C9D5E2" stroke-width="0.6"/>
<line x1="992" y1="24" x2="992" y2="32" stroke="#C9D5E2" stroke-width="0.6"/>
<line x1="992" y1="968" x2="992" y2="976" stroke="#C9D5E2" stroke-width="0.6"/>
<line x1="1184" y1="24" x2="1184" y2="32" stroke="#C9D5E2" stroke-width="0.6"/>
<line x1="1184" y1="968" x2="1184" y2="976" stroke="#C9D5E2" stroke-width="0.6"/>
<line x1="1376" y1="24" x2="1376" y2="32" stroke="#C9D5E2" stroke-width="0.6"/>
<line x1="1376" y1="968" x2="1376" y2="976" stroke="#C9D5E2" stroke-width="0.6"/>
<line x1="24" y1="219.2" x2="32" y2="219.2" stroke="#C9D5E2" stroke-width="0.6"/>
<line x1="1568" y1="219.2" x2="1576" y2="219.2" stroke="#C9D5E2" stroke-width="0.6"/>
<line x1="24" y1="406.4" x2="32" y2="406.4" stroke="#C9D5E2" stroke-width="0.6"/>
<line x1="1568" y1="406.4" x2="1576" y2="406.4" stroke="#C9D5E2" stroke-width="0.6"/>
<line x1="24" y1="593.6" x2="32" y2="593.6" stroke="#C9D5E2" stroke-width="0.6"/>
<line x1="1568" y1="593.6" x2="1576" y2="593.6" stroke="#C9D5E2" stroke-width="0.6"/>
<line x1="24" y1="780.8" x2="32" y2="780.8" stroke="#C9D5E2" stroke-width="0.6"/>
<line x1="1568" y1="780.8" x2="1576" y2="780.8" stroke="#C9D5E2" stroke-width="0.6"/>
<rect x="1372" y="32" width="196" height="936" fill="#0F1B2B" stroke="#C9D5E2" stroke-width="1"/>
<rect x="1386" y="50" width="18" height="18" fill="none" stroke="#C9D5E2" stroke-width="1.4"/>
<line x1="1386" y1="68" x2="1404" y2="50" stroke="#C9D5E2" stroke-width="1.4"/>
<text x="1386" y="90" font-family="'IBM Plex Mono','SFMono-Regular',Menlo,Consolas,'Liberation Mono',monospace" font-size="12" font-weight="600" letter-spacing="1" fill="#C9D5E2" text-anchor="start">[COMPANY NAME]</text>
<text x="1386" y="108" font-family="'IBM Plex Mono','SFMono-Regular',Menlo,Consolas,'Liberation Mono',monospace" font-size="8.5" font-weight="400" letter-spacing="1" fill="#8397AD" text-anchor="start">DESIGN DOCUMENTATION</text>
<line x1="1372" y1="128" x2="1568" y2="128" stroke="#C9D5E2" stroke-width="0.7"/>
<text x="1386" y="152" font-family="'IBM Plex Mono','SFMono-Regular',Menlo,Consolas,'Liberation Mono',monospace" font-size="8.5" font-weight="400" letter-spacing="1.4" fill="#8397AD" text-anchor="start">PROJECT</text>
<text x="1386" y="174" font-family="'IBM Plex Mono','SFMono-Regular',Menlo,Consolas,'Liberation Mono',monospace" font-size="11.5" font-weight="500" letter-spacing="0.6" fill="#C9D5E2" text-anchor="start">WAREHOUSE MEZZANINE</text>
<text x="1386" y="191" font-family="'IBM Plex Mono','SFMono-Regular',Menlo,Consolas,'Liberation Mono',monospace" font-size="11.5" font-weight="500" letter-spacing="0.6" fill="#C9D5E2" text-anchor="start">ADDITION</text>
<text x="1386" y="278" font-family="'IBM Plex Mono','SFMono-Regular',Menlo,Consolas,'Liberation Mono',monospace" font-size="9" font-weight="400" letter-spacing="0.6" fill="#8397AD" text-anchor="start">[PROJECT ADDRESS]</text>
<line x1="1372" y1="298" x2="1568" y2="298" stroke="#C9D5E2" stroke-width="0.7"/>
<text x="1386" y="322" font-family="'IBM Plex Mono','SFMono-Regular',Menlo,Consolas,'Liberation Mono',monospace" font-size="8.5" font-weight="400" letter-spacing="1.4" fill="#8397AD" text-anchor="start">STATUS</text>
<text x="1386" y="344" font-family="'IBM Plex Mono','SFMono-Regular',Menlo,Consolas,'Liberation Mono',monospace" font-size="10.5" font-weight="600" letter-spacing="0.8" fill="#8DB4DC" text-anchor="start">PLACEHOLDER IMAGE</text>
<text x="1386" y="362" font-family="'IBM Plex Mono','SFMono-Regular',Menlo,Consolas,'Liberation Mono',monospace" font-size="9.5" font-weight="400" letter-spacing="0.8" fill="#C9D5E2" text-anchor="start">ILLUSTRATIVE ONLY</text>
<text x="1386" y="378" font-family="'IBM Plex Mono','SFMono-Regular',Menlo,Consolas,'Liberation Mono',monospace" font-size="9.5" font-weight="400" letter-spacing="0.8" fill="#C9D5E2" text-anchor="start">NOT A COMPLETED</text>
<text x="1386" y="394" font-family="'IBM Plex Mono','SFMono-Regular',Menlo,Consolas,'Liberation Mono',monospace" font-size="9.5" font-weight="400" letter-spacing="0.8" fill="#C9D5E2" text-anchor="start">CLIENT PROJECT</text>
<line x1="1372" y1="418" x2="1568" y2="418" stroke="#C9D5E2" stroke-width="0.7"/>
<text x="1386" y="442" font-family="'IBM Plex Mono','SFMono-Regular',Menlo,Consolas,'Liberation Mono',monospace" font-size="8.5" font-weight="400" letter-spacing="1.4" fill="#8397AD" text-anchor="start">DATE</text>
<text x="1386" y="460" font-family="'IBM Plex Mono','SFMono-Regular',Menlo,Consolas,'Liberation Mono',monospace" font-size="10" font-weight="400" letter-spacing="0.6" fill="#C9D5E2" text-anchor="start">[DATE]</text>
<text x="1386" y="484" font-family="'IBM Plex Mono','SFMono-Regular',Menlo,Consolas,'Liberation Mono',monospace" font-size="8.5" font-weight="400" letter-spacing="1.4" fill="#8397AD" text-anchor="start">SCALE</text>
<text x="1386" y="502" font-family="'IBM Plex Mono','SFMono-Regular',Menlo,Consolas,'Liberation Mono',monospace" font-size="10" font-weight="400" letter-spacing="0.6" fill="#C9D5E2" text-anchor="start">NTS</text>
<line x1="1372" y1="514" x2="1568" y2="514" stroke="#C9D5E2" stroke-width="0.7"/>
<text x="1386" y="538" font-family="'IBM Plex Mono','SFMono-Regular',Menlo,Consolas,'Liberation Mono',monospace" font-size="8.5" font-weight="400" letter-spacing="1.4" fill="#8397AD" text-anchor="start">SHEET TITLE</text>
<text x="1386" y="560" font-family="'IBM Plex Mono','SFMono-Regular',Menlo,Consolas,'Liberation Mono',monospace" font-size="11" font-weight="500" letter-spacing="0.6" fill="#C9D5E2" text-anchor="start">MEZZANINE DIAGRAM</text>
<line x1="1372" y1="634" x2="1568" y2="634" stroke="#C9D5E2" stroke-width="0.7"/>
<text x="1386" y="658" font-family="'IBM Plex Mono','SFMono-Regular',Menlo,Consolas,'Liberation Mono',monospace" font-size="8.5" font-weight="400" letter-spacing="1.4" fill="#8397AD" text-anchor="start">REVISIONS</text>
<line x1="1386" y1="680" x2="1554" y2="680" stroke="#C9D5E2" stroke-width="0.4" opacity="0.7"/>
<line x1="1386" y1="700" x2="1554" y2="700" stroke="#C9D5E2" stroke-width="0.4" opacity="0.7"/>
<line x1="1386" y1="720" x2="1554" y2="720" stroke="#C9D5E2" stroke-width="0.4" opacity="0.7"/>
<line x1="1372" y1="858" x2="1568" y2="858" stroke="#C9D5E2" stroke-width="1"/>
<text x="1386" y="884" font-family="'IBM Plex Mono','SFMono-Regular',Menlo,Consolas,'Liberation Mono',monospace" font-size="8.5" font-weight="400" letter-spacing="1.4" fill="#8397AD" text-anchor="start">SHEET</text>
<text x="1386" y="938" font-family="'IBM Plex Mono','SFMono-Regular',Menlo,Consolas,'Liberation Mono',monospace" font-size="44" font-weight="600" letter-spacing="0" fill="#C9D5E2" text-anchor="start">A-003</text>
<path d="M1193.9 662.1 L771.3 906.1 L771.3 900 L1193.9 656 Z" fill="#142236" stroke="#8397AD" stroke-width="0.8" stroke-linejoin="round"/>
<path d="M137.4 540.1 L771.3 906.1 L771.3 900 L137.4 534 Z" fill="#1A2B40" stroke="#8397AD" stroke-width="0.8" stroke-linejoin="round"/>
<path d="M560 290 L1193.9 656 L771.3 900 L137.4 534 Z" fill="#22344B" stroke="#8397AD" stroke-width="0.8" stroke-linejoin="round"/>
<line x1="718.5" y1="381.5" x2="295.9" y2="625.5" stroke="#34465C" stroke-width="0.7" stroke-dasharray="10 5"/>
<line x1="877" y1="473" x2="454.3" y2="717" stroke="#34465C" stroke-width="0.7" stroke-dasharray="10 5"/>
<line x1="1035.4" y1="564.5" x2="612.8" y2="808.5" stroke="#34465C" stroke-width="0.7" stroke-dasharray="10 5"/>
<line x1="348.7" y1="412" x2="982.6" y2="778" stroke="#34465C" stroke-width="0.7" stroke-dasharray="10 5"/>
<line x1="560" y1="290" x2="560" y2="119.2" stroke="#8397AD" stroke-width="0.8"/>
<line x1="560" y1="119.2" x2="1193.9" y2="485.2" stroke="#8397AD" stroke-width="0.8" stroke-dasharray="8 5"/>
<line x1="560" y1="119.2" x2="137.4" y2="363.2" stroke="#8397AD" stroke-width="0.8" stroke-dasharray="8 5"/>
<line x1="1193.9" y1="656" x2="1193.9" y2="485.2" stroke="#8397AD" stroke-width="0.6" stroke-dasharray="4 4"/>
<line x1="137.4" y1="534" x2="137.4" y2="363.2" stroke="#8397AD" stroke-width="0.6" stroke-dasharray="4 4"/>
<path d="M591.7 344.9 L454.3 424.2 L454.3 338.8 L591.7 259.5 Z" fill="#142236" stroke="#8397AD" stroke-width="0.8" stroke-linejoin="round"/>
<path d="M433.2 412 L454.3 424.2 L454.3 338.8 L433.2 326.6 Z" fill="#1A2B40" stroke="#8397AD" stroke-width="0.8" stroke-linejoin="round"/>
<path d="M570.6 247.3 L591.7 259.5 L454.3 338.8 L433.2 326.6 Z" fill="#22344B" stroke="#8397AD" stroke-width="0.8" stroke-linejoin="round"/>
<path d="M649.8 378.5 L512.5 457.8 L512.5 372.4 L649.8 293.1 Z" fill="#142236" stroke="#8397AD" stroke-width="0.8" stroke-linejoin="round"/>
<path d="M491.3 445.6 L512.5 457.8 L512.5 372.4 L491.3 360.2 Z" fill="#1A2B40" stroke="#8397AD" stroke-width="0.8" stroke-linejoin="round"/>
<path d="M628.7 280.9 L649.8 293.1 L512.5 372.4 L491.3 360.2 Z" fill="#22344B" stroke="#8397AD" stroke-width="0.8" stroke-linejoin="round"/>
<path d="M707.9 412 L570.6 491.3 L570.6 405.9 L707.9 326.6 Z" fill="#142236" stroke="#8397AD" stroke-width="0.8" stroke-linejoin="round"/>
<path d="M549.4 479.1 L570.6 491.3 L570.6 405.9 L549.4 393.7 Z" fill="#1A2B40" stroke="#8397AD" stroke-width="0.8" stroke-linejoin="round"/>
<path d="M686.8 314.4 L707.9 326.6 L570.6 405.9 L549.4 393.7 Z" fill="#22344B" stroke="#8397AD" stroke-width="0.8" stroke-linejoin="round"/>
<path d="M766 445.6 L628.7 524.9 L628.7 439.5 L766 360.2 Z" fill="#142236" stroke="#8397AD" stroke-width="0.8" stroke-linejoin="round"/>
<path d="M607.5 512.7 L628.7 524.9 L628.7 439.5 L607.5 427.3 Z" fill="#1A2B40" stroke="#8397AD" stroke-width="0.8" stroke-linejoin="round"/>
<path d="M744.9 348 L766 360.2 L628.7 439.5 L607.5 427.3 Z" fill="#22344B" stroke="#8397AD" stroke-width="0.8" stroke-linejoin="round"/>
<path d="M824.1 479.1 L686.8 558.4 L686.8 473 L824.1 393.7 Z" fill="#142236" stroke="#8397AD" stroke-width="0.8" stroke-linejoin="round"/>
<path d="M665.7 546.2 L686.8 558.4 L686.8 473 L665.7 460.8 Z" fill="#1A2B40" stroke="#8397AD" stroke-width="0.8" stroke-linejoin="round"/>
<path d="M803 381.5 L824.1 393.7 L686.8 473 L665.7 460.8 Z" fill="#22344B" stroke="#8397AD" stroke-width="0.8" stroke-linejoin="round"/>
<path d="M840 585.8 L818.9 598.1 L818.9 590.7 L840 578.5 Z" fill="#1C3552" stroke="#8DB4DC" stroke-width="0.5" stroke-linejoin="round"/>
<path d="M813.6 595 L818.9 598.1 L818.9 590.7 L813.6 587.7 Z" fill="#23405F" stroke="#8DB4DC" stroke-width="0.5" stroke-linejoin="round"/>
<path d="M834.7 575.5 L840 578.5 L818.9 590.7 L813.6 587.7 Z" fill="#2D4B6E" stroke="#8DB4DC" stroke-width="0.5" stroke-linejoin="round"/>
<path d="M845.3 588.9 L824.1 601.1 L824.1 586.5 L845.3 574.3 Z" fill="#1C3552" stroke="#8DB4DC" stroke-width="0.5" stroke-linejoin="round"/>
<path d="M818.9 598.1 L824.1 601.1 L824.1 586.5 L818.9 583.4 Z" fill="#23405F" stroke="#8DB4DC" stroke-width="0.5" stroke-linejoin="round"/>
<path d="M840 571.2 L845.3 574.3 L824.1 586.5 L818.9 583.4 Z" fill="#2D4B6E" stroke="#8DB4DC" stroke-width="0.5" stroke-linejoin="round"/>
<path d="M850.6 592 L829.4 604.2 L829.4 582.2 L850.6 570 Z" fill="#1C3552" stroke="#8DB4DC" stroke-width="0.5" stroke-linejoin="round"/>
<path d="M824.1 601.1 L829.4 604.2 L829.4 582.2 L824.1 579.1 Z" fill="#23405F" stroke="#8DB4DC" stroke-width="0.5" stroke-linejoin="round"/>
<path d="M845.3 566.9 L850.6 570 L829.4 582.2 L824.1 579.1 Z" fill="#2D4B6E" stroke="#8DB4DC" stroke-width="0.5" stroke-linejoin="round"/>
<path d="M855.8 595 L834.7 607.2 L834.7 577.9 L855.8 565.7 Z" fill="#1C3552" stroke="#8DB4DC" stroke-width="0.5" stroke-linejoin="round"/>
<path d="M829.4 604.2 L834.7 607.2 L834.7 577.9 L829.4 574.9 Z" fill="#23405F" stroke="#8DB4DC" stroke-width="0.5" stroke-linejoin="round"/>
<path d="M850.6 562.7 L855.8 565.7 L834.7 577.9 L829.4 574.9 Z" fill="#2D4B6E" stroke="#8DB4DC" stroke-width="0.5" stroke-linejoin="round"/>
<path d="M861.1 598.1 L840 610.3 L840 573.7 L861.1 561.4 Z" fill="#1C3552" stroke="#8DB4DC" stroke-width="0.5" stroke-linejoin="round"/>
<path d="M834.7 607.2 L840 610.3 L840 573.7 L834.7 570.6 Z" fill="#23405F" stroke="#8DB4DC" stroke-width="0.5" stroke-linejoin="round"/>
<path d="M855.8 558.4 L861.1 561.4 L840 573.7 L834.7 570.6 Z" fill="#2D4B6E" stroke="#8DB4DC" stroke-width="0.5" stroke-linejoin="round"/>
<path d="M866.4 601.1 L845.3 613.3 L845.3 569.4 L866.4 557.2 Z" fill="#1C3552" stroke="#8DB4DC" stroke-width="0.5" stroke-linejoin="round"/>
<path d="M840 610.3 L845.3 613.3 L845.3 569.4 L840 566.3 Z" fill="#23405F" stroke="#8DB4DC" stroke-width="0.5" stroke-linejoin="round"/>
<path d="M861.1 554.1 L866.4 557.2 L845.3 569.4 L840 566.3 Z" fill="#2D4B6E" stroke="#8DB4DC" stroke-width="0.5" stroke-linejoin="round"/>
<path d="M871.7 604.2 L850.6 616.3 L850.6 565.1 L871.7 552.9 Z" fill="#1C3552" stroke="#8DB4DC" stroke-width="0.5" stroke-linejoin="round"/>
<path d="M845.3 613.3 L850.6 616.3 L850.6 565.1 L845.3 562.1 Z" fill="#23405F" stroke="#8DB4DC" stroke-width="0.5" stroke-linejoin="round"/>
<path d="M866.4 549.9 L871.7 552.9 L850.6 565.1 L845.3 562.1 Z" fill="#2D4B6E" stroke="#8DB4DC" stroke-width="0.5" stroke-linejoin="round"/>
<path d="M877 607.2 L855.8 619.4 L855.8 560.8 L877 548.6 Z" fill="#1C3552" stroke="#8DB4DC" stroke-width="0.5" stroke-linejoin="round"/>
<path d="M850.6 616.3 L855.8 619.4 L855.8 560.8 L850.6 557.8 Z" fill="#23405F" stroke="#8DB4DC" stroke-width="0.5" stroke-linejoin="round"/>
<path d="M871.7 545.6 L877 548.6 L855.8 560.8 L850.6 557.8 Z" fill="#2D4B6E" stroke="#8DB4DC" stroke-width="0.5" stroke-linejoin="round"/>
<path d="M882.2 610.3 L861.1 622.5 L861.1 556.6 L882.2 544.4 Z" fill="#1C3552" stroke="#8DB4DC" stroke-width="0.5" stroke-linejoin="round"/>
<path d="M855.8 619.4 L861.1 622.5 L861.1 556.6 L855.8 553.5 Z" fill="#23405F" stroke="#8DB4DC" stroke-width="0.5" stroke-linejoin="round"/>
<path d="M877 541.3 L882.2 544.4 L861.1 556.6 L855.8 553.5 Z" fill="#2D4B6E" stroke="#8DB4DC" stroke-width="0.5" stroke-linejoin="round"/>
<path d="M887.5 613.3 L866.4 625.5 L866.4 552.3 L887.5 540.1 Z" fill="#1C3552" stroke="#8DB4DC" stroke-width="0.5" stroke-linejoin="round"/>
<path d="M861.1 622.5 L866.4 625.5 L866.4 552.3 L861.1 549.3 Z" fill="#23405F" stroke="#8DB4DC" stroke-width="0.5" stroke-linejoin="round"/>
<path d="M882.2 537.1 L887.5 540.1 L866.4 552.3 L861.1 549.3 Z" fill="#2D4B6E" stroke="#8DB4DC" stroke-width="0.5" stroke-linejoin="round"/>
<path d="M986.8 560.8 L982.6 563.3 L982.6 490.1 L986.8 487.6 Z" fill="#1C3552" stroke="#8DB4DC" stroke-width="0.7" stroke-linejoin="round"/>
<path d="M978.4 560.8 L982.6 563.3 L982.6 490.1 L978.4 487.6 Z" fill="#23405F" stroke="#8DB4DC" stroke-width="0.7" stroke-linejoin="round"/>
<path d="M982.6 485.2 L986.8 487.6 L982.6 490.1 L978.4 487.6 Z" fill="#2D4B6E" stroke="#8DB4DC" stroke-width="0.7" stroke-linejoin="round"/>
<path d="M907.6 606.6 L903.4 609 L903.4 535.8 L907.6 533.4 Z" fill="#1C3552" stroke="#8DB4DC" stroke-width="0.7" stroke-linejoin="round"/>
<path d="M899.2 606.6 L903.4 609 L903.4 535.8 L899.2 533.4 Z" fill="#23405F" stroke="#8DB4DC" stroke-width="0.7" stroke-linejoin="round"/>
<path d="M903.4 531 L907.6 533.4 L903.4 535.8 L899.2 533.4 Z" fill="#2D4B6E" stroke="#8DB4DC" stroke-width="0.7" stroke-linejoin="round"/>
<path d="M832.6 649.9 L828.4 652.3 L828.4 579.1 L832.6 576.7 Z" fill="#1C3552" stroke="#8DB4DC" stroke-width="0.7" stroke-linejoin="round"/>
<path d="M824.1 649.9 L828.4 652.3 L828.4 579.1 L824.1 576.7 Z" fill="#23405F" stroke="#8DB4DC" stroke-width="0.7" stroke-linejoin="round"/>
<path d="M828.4 574.3 L832.6 576.7 L828.4 579.1 L824.1 576.7 Z" fill="#2D4B6E" stroke="#8DB4DC" stroke-width="0.7" stroke-linejoin="round"/>
<path d="M1071.4 609.6 L1067.1 612.1 L1067.1 538.9 L1071.4 536.4 Z" fill="#1C3552" stroke="#8DB4DC" stroke-width="0.7" stroke-linejoin="round"/>
<path d="M1062.9 609.6 L1067.1 612.1 L1067.1 538.9 L1062.9 536.4 Z" fill="#23405F" stroke="#8DB4DC" stroke-width="0.7" stroke-linejoin="round"/>
<path d="M1067.1 534 L1071.4 536.4 L1067.1 538.9 L1062.9 536.4 Z" fill="#2D4B6E" stroke="#8DB4DC" stroke-width="0.7" stroke-linejoin="round"/>
<path d="M992.1 655.4 L987.9 657.8 L987.9 584.6 L992.1 582.2 Z" fill="#1C3552" stroke="#8DB4DC" stroke-width="0.7" stroke-linejoin="round"/>
<path d="M983.7 655.4 L987.9 657.8 L987.9 584.6 L983.7 582.2 Z" fill="#23405F" stroke="#8DB4DC" stroke-width="0.7" stroke-linejoin="round"/>
<path d="M987.9 579.8 L992.1 582.2 L987.9 584.6 L983.7 582.2 Z" fill="#2D4B6E" stroke="#8DB4DC" stroke-width="0.7" stroke-linejoin="round"/>
<path d="M917.1 698.7 L912.9 701.1 L912.9 627.9 L917.1 625.5 Z" fill="#1C3552" stroke="#8DB4DC" stroke-width="0.7" stroke-linejoin="round"/>
<path d="M908.7 698.7 L912.9 701.1 L912.9 627.9 L908.7 625.5 Z" fill="#23405F" stroke="#8DB4DC" stroke-width="0.7" stroke-linejoin="round"/>
<path d="M912.9 623.1 L917.1 625.5 L912.9 627.9 L908.7 625.5 Z" fill="#2D4B6E" stroke="#8DB4DC" stroke-width="0.7" stroke-linejoin="round"/>
<path d="M1151.7 656 L1147.4 658.4 L1147.4 585.2 L1151.7 582.8 Z" fill="#1C3552" stroke="#8DB4DC" stroke-width="0.7" stroke-linejoin="round"/>
<path d="M1143.2 656 L1147.4 658.4 L1147.4 585.2 L1143.2 582.8 Z" fill="#23405F" stroke="#8DB4DC" stroke-width="0.7" stroke-linejoin="round"/>
<path d="M1147.4 580.4 L1151.7 582.8 L1147.4 585.2 L1143.2 582.8 Z" fill="#2D4B6E" stroke="#8DB4DC" stroke-width="0.7" stroke-linejoin="round"/>
<path d="M1072.4 701.8 L1068.2 704.2 L1068.2 631 L1072.4 628.6 Z" fill="#1C3552" stroke="#8DB4DC" stroke-width="0.7" stroke-linejoin="round"/>
<path d="M1064 701.8 L1068.2 704.2 L1068.2 631 L1064 628.6 Z" fill="#23405F" stroke="#8DB4DC" stroke-width="0.7" stroke-linejoin="round"/>
<path d="M1068.2 626.1 L1072.4 628.6 L1068.2 631 L1064 628.6 Z" fill="#2D4B6E" stroke="#8DB4DC" stroke-width="0.7" stroke-linejoin="round"/>
<path d="M997.4 745.1 L993.2 747.5 L993.2 674.3 L997.4 671.9 Z" fill="#1C3552" stroke="#8DB4DC" stroke-width="0.7" stroke-linejoin="round"/>
<path d="M989 745.1 L993.2 747.5 L993.2 674.3 L989 671.9 Z" fill="#23405F" stroke="#8DB4DC" stroke-width="0.7" stroke-linejoin="round"/>
<path d="M993.2 669.4 L997.4 671.9 L993.2 674.3 L989 671.9 Z" fill="#2D4B6E" stroke="#8DB4DC" stroke-width="0.7" stroke-linejoin="round"/>
<path d="M1151.7 582.8 L993.2 674.3 L993.2 667 L1151.7 575.5 Z" fill="#1C3552" stroke="#8DB4DC" stroke-width="1" stroke-linejoin="round"/>
<path d="M824.1 576.7 L993.2 674.3 L993.2 667 L824.1 569.4 Z" fill="#23405F" stroke="#8DB4DC" stroke-width="1" stroke-linejoin="round"/>
<path d="M982.6 477.9 L1151.7 575.5 L993.2 667 L824.1 569.4 Z" fill="#2D4B6E" stroke="#8DB4DC" stroke-width="1" stroke-linejoin="round"/>
<line x1="1151.7" y1="555.4" x2="993.2" y2="646.9" stroke="#8DB4DC" stroke-width="1.2"/>
<line x1="824.1" y1="549.3" x2="993.2" y2="646.9" stroke="#8DB4DC" stroke-width="1.2"/>
<line x1="824.1" y1="569.4" x2="824.1" y2="549.3" stroke="#8DB4DC" stroke-width="0.6"/>
<line x1="845.3" y1="581.6" x2="845.3" y2="561.4" stroke="#8DB4DC" stroke-width="0.6"/>
<line x1="866.4" y1="593.8" x2="866.4" y2="573.7" stroke="#8DB4DC" stroke-width="0.6"/>
<line x1="887.5" y1="606" x2="887.5" y2="585.9" stroke="#8DB4DC" stroke-width="0.6"/>
<line x1="908.7" y1="618.2" x2="908.7" y2="598.1" stroke="#8DB4DC" stroke-width="0.6"/>
<line x1="929.8" y1="630.4" x2="929.8" y2="610.3" stroke="#8DB4DC" stroke-width="0.6"/>
<line x1="950.9" y1="642.6" x2="950.9" y2="622.4" stroke="#8DB4DC" stroke-width="0.6"/>
<line x1="972.1" y1="654.8" x2="972.1" y2="634.7" stroke="#8DB4DC" stroke-width="0.6"/>
<line x1="993.2" y1="667" x2="993.2" y2="646.9" stroke="#8DB4DC" stroke-width="0.6"/>
<line x1="1151.7" y1="575.5" x2="1151.7" y2="555.4" stroke="#8DB4DC" stroke-width="0.6"/>
<line x1="1130.5" y1="587.7" x2="1130.5" y2="567.6" stroke="#8DB4DC" stroke-width="0.6"/>
<line x1="1109.4" y1="599.9" x2="1109.4" y2="579.8" stroke="#8DB4DC" stroke-width="0.6"/>
<line x1="1088.3" y1="612.1" x2="1088.3" y2="591.9" stroke="#8DB4DC" stroke-width="0.6"/>
<line x1="1067.1" y1="624.3" x2="1067.1" y2="604.2" stroke="#8DB4DC" stroke-width="0.6"/>
<line x1="1046" y1="636.5" x2="1046" y2="616.4" stroke="#8DB4DC" stroke-width="0.6"/>
<line x1="1024.9" y1="648.7" x2="1024.9" y2="628.6" stroke="#8DB4DC" stroke-width="0.6"/>
<line x1="1003.8" y1="660.9" x2="1003.8" y2="640.8" stroke="#8DB4DC" stroke-width="0.6"/>
<line x1="1067.1" y1="625.5" x2="1180" y2="330" stroke="#8DB4DC" stroke-width="0.7"/>
<circle cx="1067.1" cy="625.5" r="2.5" fill="#8DB4DC" stroke="none"/>
<text x="1186" y="334" font-family="'IBM Plex Mono','SFMono-Regular',Menlo,Consolas,'Liberation Mono',monospace" font-size="10.5" font-weight="600" letter-spacing="1.2" fill="#8DB4DC" text-anchor="start">NEW STEEL MEZZANINE</text>
<line x1="908.7" y1="662.1" x2="1180" y2="610" stroke="#8DB4DC" stroke-width="0.7"/>
<circle cx="908.7" cy="662.1" r="2.5" fill="#8DB4DC" stroke="none"/>
<text x="1186" y="614" font-family="'IBM Plex Mono','SFMono-Regular',Menlo,Consolas,'Liberation Mono',monospace" font-size="10.5" font-weight="600" letter-spacing="1.2" fill="#8DB4DC" text-anchor="start">NEW COLUMNS + FOOTINGS</text>
<line x1="840" y1="579.8" x2="1020" y2="760" stroke="#8DB4DC" stroke-width="0.7"/>
<circle cx="840" cy="579.8" r="2.5" fill="#8DB4DC" stroke="none"/>
<text x="1026" y="764" font-family="'IBM Plex Mono','SFMono-Regular',Menlo,Consolas,'Liberation Mono',monospace" font-size="10.5" font-weight="600" letter-spacing="1.2" fill="#8DB4DC" text-anchor="start">NEW STAIR + GUARDS</text>
<line x1="549.4" y1="418.1" x2="170" y2="760" stroke="#C9D5E2" stroke-width="0.7"/>
<circle cx="549.4" cy="418.1" r="2.5" fill="#C9D5E2" stroke="none"/>
<text x="176" y="764" font-family="'IBM Plex Mono','SFMono-Regular',Menlo,Consolas,'Liberation Mono',monospace" font-size="10.5" font-weight="600" letter-spacing="1.2" fill="#C9D5E2" text-anchor="start">EXISTING RACKING</text>
<circle cx="140" cy="880" r="20" fill="none" stroke="#C9D5E2" stroke-width="1.2"/>
<line x1="120" y1="880" x2="160" y2="880" stroke="#C9D5E2" stroke-width="0.8"/>
<text x="140" y="875" font-family="'IBM Plex Mono','SFMono-Regular',Menlo,Consolas,'Liberation Mono',monospace" font-size="12" font-weight="600" letter-spacing="0" fill="#C9D5E2" text-anchor="middle">1</text>
<text x="140" y="894" font-family="'IBM Plex Mono','SFMono-Regular',Menlo,Consolas,'Liberation Mono',monospace" font-size="8.5" font-weight="400" letter-spacing="0" fill="#C9D5E2" text-anchor="middle">A-003</text>
<line x1="160" y1="882" x2="580" y2="882" stroke="#C9D5E2" stroke-width="1.6"/>
<text x="172" y="872" font-family="'IBM Plex Mono','SFMono-Regular',Menlo,Consolas,'Liberation Mono',monospace" font-size="14" font-weight="600" letter-spacing="1.2" fill="#C9D5E2" text-anchor="start">MEZZANINE DIAGRAM</text>
<text x="172" y="900" font-family="'IBM Plex Mono','SFMono-Regular',Menlo,Consolas,'Liberation Mono',monospace" font-size="9.5" font-weight="400" letter-spacing="1" fill="#8397AD" text-anchor="start">SCALE: NTS</text>
</svg>
